<mxfile host="app.diagrams.net" modified="2024-03-06T09:48:59.736Z" agent="Mozilla/5.0 (Windows NT 10.0; Win64; x64) AppleWebKit/537.36 (KHTML, like Gecko) Chrome/122.0.0.0 Safari/537.36" version="24.0.1" etag="EyrH5cpIYlJ7AbP6226d" type="github">
  <diagram name="Pagina-1" id="hlhXh77hV-SeNRbmWjuJ">
    <mxGraphModel>
      <root>
        <mxCell id="0" />
        <mxCell id="1" parent="0" />
      </root>
    </mxGraphModel>
  </diagram>
</mxfile>
